<?xml version="1.0" encoding="iso-8859-1"?>
<!-- Uploaded to: SVG Repo, www.svgrepo.com, Generator: SVG Repo Mixer Tools -->
<svg height="800px" width="800px" version="1.1" id="Capa_1" xmlns="http://www.w3.org/2000/svg" xmlns:xlink="http://www.w3.org/1999/xlink" 
	 viewBox="0 0 470 470" xml:space="preserve">
<g>
	<path style="fill:#FAB43E;" d="M153.646,160.951l42.049-42.049c2.929-2.93,2.929-7.678,0-10.607c-2.929-2.928-7.678-2.928-10.606,0
		l-41.185,41.185l5.303,5.303C151.023,156.598,152.508,158.685,153.646,160.951z"/>
	<path style="fill:#FAB43E;" d="M174.475,97.681c2.929-2.93,2.929-7.678,0-10.607c-2.929-2.928-7.678-2.928-10.606,0l-41.185,41.185
		l10.607,10.607L174.475,97.681z"/>
	<path style="fill:#FAB43E;" d="M153.256,76.462c2.929-2.93,2.929-7.678,0-10.607c-2.929-2.928-7.678-2.928-10.606,0l-41.185,41.185
		l10.607,10.607L153.256,76.462z"/>
	<path style="fill:#FAB43E;" d="M132.036,55.243c2.929-2.93,2.929-7.678,0-10.607c-2.928-2.927-7.677-2.929-10.606,0L80.244,85.82
		l10.607,10.607L132.036,55.243z"/>
	<path style="fill:#FAB43E;" d="M110.816,34.023c2.929-2.93,2.929-7.678,0-10.607c-2.929-2.928-7.678-2.928-10.606,0L59.025,64.601
		l10.607,10.607L110.816,34.023z"/>
	<path style="fill:#FAB43E;" d="M89.597,12.804c2.929-2.93,2.929-7.678,0-10.607c-2.929-2.928-7.678-2.928-10.606,0L37.806,43.381
		l10.607,10.607L89.597,12.804z"/>
	<path style="fill:#C3F2AA;" d="M219.09,293.144c-2.929,2.928-7.678,2.928-10.607,0l-50.391-50.392
		c-1.017-1.017-1.72-2.305-2.025-3.709l-15.072-69.27c-0.362-1.665-1.19-3.181-2.394-4.385L30.648,57.437L18.106,69.979
		L122.66,174.532c1.017,1.017,1.72,2.305,2.025,3.709l15.072,69.27c0.362,1.665,1.19,3.181,2.394,4.385l53.79,53.79
		c2.929,2.93,2.929,7.677,0,10.607l10.607,10.607l23.148-23.149L219.09,293.144z"/>
	<path style="fill:#C3F2AA;" d="M240.303,360.654l10.606,10.606c2.929-2.928,7.678-2.928,10.607,0l81.142,81.143
		c3.458,3.457,9.084,3.459,12.542,0c1.675-1.675,2.598-3.902,2.598-6.271c0-2.369-0.922-4.596-2.597-6.271l-81.143-81.143
		c-2.929-2.93-2.929-7.677,0-10.607l-10.606-10.606L240.303,360.654z"/>
	<path style="fill:#3F993A;" d="M327.848,251.895c1.205-1.204,2.033-2.72,2.395-4.384l15.072-69.27
		c0.306-1.404,1.009-2.692,2.025-3.709L451.894,69.979l-12.542-12.542l-1.849,1.85c-0.01,0.009-21.221,21.221-21.221,21.221
		c-0.008,0.008-84.882,84.882-84.882,84.882c-1.205,1.204-2.032,2.72-2.395,4.385l-15.072,69.27
		c-0.306,1.404-1.009,2.692-2.025,3.709L114.8,439.861c-1.675,1.675-2.598,3.901-2.598,6.271c0,2.368,0.922,4.596,2.598,6.271
		c1.675,1.675,3.902,2.598,6.271,2.598s4.596-0.923,6.271-2.598L327.848,251.895z"/>
	<path style="fill:#570100;" d="M195.941,305.685l-53.79-53.79c-1.204-1.204-2.032-2.72-2.394-4.385l-15.072-69.27
		c-0.306-1.404-1.009-2.692-2.025-3.709L18.106,69.979l12.542-12.542l107.952,107.952c1.204,1.204,2.032,2.72,2.394,4.385
		l15.072,69.27c0.306,1.404,1.009,2.692,2.025,3.709l50.391,50.392c2.929,2.928,7.678,2.928,10.606,0
		c2.929-2.93,2.929-7.678,0-10.607l-48.834-48.834l-14.604-67.118c-0.429-1.97-1.113-3.856-2.006-5.634
		c-1.138-2.266-2.623-4.353-4.439-6.168L35.952,41.527c-2.929-2.928-7.678-2.928-10.606,0L2.197,64.676
		C0.79,66.083,0,67.99,0,69.979s0.79,3.896,2.197,5.304l108.3,108.299l14.604,67.117c0.975,4.48,3.204,8.563,6.445,11.804
		l53.789,53.79c1.464,1.464,3.384,2.196,5.303,2.196c1.919,0,3.839-0.732,5.303-2.196
		C198.871,313.363,198.87,308.615,195.941,305.685z"/>
	<path style="fill:#570100;" d="M274.058,358.719l81.143,81.143c1.675,1.675,2.597,3.901,2.597,6.271
		c0,2.368-0.922,4.596-2.598,6.271c-3.458,3.459-9.084,3.457-12.542,0l-81.142-81.143c-2.929-2.928-7.678-2.928-10.606,0
		c-2.929,2.93-2.929,7.678,0,10.607l81.142,81.143c4.653,4.652,10.765,6.979,16.877,6.979c6.112,0,12.224-2.326,16.877-6.979
		c4.508-4.509,6.991-10.503,6.991-16.878c0-6.376-2.483-12.37-6.991-16.878l-81.142-81.143c-2.928-2.928-7.677-2.928-10.606,0
		C271.129,351.041,271.129,355.789,274.058,358.719z"/>
	<path style="fill:#570100;" d="M338.454,262.503c3.242-3.241,5.471-7.323,6.446-11.803l14.604-67.117l108.3-108.3
		c2.929-2.93,2.929-7.678,0-10.607l-23.148-23.148c-2.929-2.928-7.678-2.928-10.606,0l-1.854,1.854L391.009,2.196
		c-2.929-2.928-7.678-2.928-10.606,0c-2.929,2.93-2.929,7.678,0,10.607l41.185,41.185l-10.613,10.613L369.79,23.416
		c-2.929-2.928-7.678-2.928-10.606,0c-2.929,2.93-2.929,7.678,0,10.607l41.184,41.185L389.756,85.82L348.57,44.636
		c-2.929-2.928-7.678-2.928-10.606,0c-2.929,2.93-2.929,7.678,0,10.607l41.185,41.184l-10.613,10.613l-41.185-41.186
		c-2.929-2.928-7.678-2.928-10.606,0c-2.929,2.93-2.929,7.678,0,10.607l41.185,41.185l-10.613,10.613l-41.185-41.186
		c-2.929-2.928-7.678-2.928-10.606,0c-2.929,2.93-2.929,7.678,0,10.607l41.185,41.185l-10.613,10.613l-41.185-41.185
		c-2.929-2.928-7.678-2.928-10.606,0c-2.929,2.93-2.929,7.678,0,10.607l42.049,42.049c-0.893,1.778-1.578,3.664-2.006,5.634
		l-14.604,67.118l-70.047,70.047l-23.148,23.149L104.194,429.254c-4.509,4.508-6.992,10.502-6.992,16.878
		c0,6.375,2.483,12.369,6.991,16.878c4.508,4.508,10.502,6.99,16.877,6.99s12.369-2.482,16.877-6.99l102.355-102.356l23.148-23.149
		L338.454,262.503z M121.071,455c-2.369,0-4.596-0.923-6.271-2.598c-1.675-1.675-2.598-3.902-2.598-6.271
		c0-2.369,0.922-4.596,2.598-6.271l197.108-197.108c1.017-1.017,1.72-2.305,2.025-3.709l15.072-69.27
		c0.362-1.665,1.19-3.181,2.395-4.385l84.874-84.874c0.008-0.008,21.219-21.219,21.219-21.219c0.01-0.009,1.859-1.859,1.859-1.859
		l12.542,12.542L347.34,174.533c-1.017,1.017-1.72,2.305-2.025,3.709l-15.072,69.27c-0.362,1.664-1.19,3.18-2.395,4.384
		L127.342,452.402C125.667,454.077,123.44,455,121.071,455z"/>
</g>
</svg>