<?xml version="1.0" encoding="iso-8859-1"?>
<!-- Uploaded to: SVG Repo, www.svgrepo.com, Generator: SVG Repo Mixer Tools -->
<svg version="1.1" id="Layer_1" xmlns="http://www.w3.org/2000/svg" xmlns:xlink="http://www.w3.org/1999/xlink" 
	 viewBox="0 0 512 512" xml:space="preserve">
<rect x="61.368" style="fill:#FFE98F;" width="101.205" height="75.208"/>
<rect x="111.971" style="fill:#FFC170;" width="50.603" height="75.208"/>
<polygon style="fill:#FF5023;" points="206.85,429.391 192.736,134.1 162.577,69.228 61.372,69.228 28.663,133.782 17.109,429.03 
	15.446,512 208.503,512 "/>
<polygon style="fill:#A2001D;" points="207.744,474.048 206.85,429.391 192.736,134.1 28.663,133.782 17.109,429.03 16.207,474.048 
	"/>
<polygon style="fill:#6C0014;" points="110.709,474.048 207.744,474.048 206.85,429.391 192.736,134.1 110.709,133.941 "/>
<path style="fill:#A2001D;" d="M413.883,228.145l-13.248-16.531l-14.978,14.98c-16.049,16.049-25.462,13.52-50.627,6.753
	c-16.208-4.358-36.378-9.781-62.462-9.781c-65.654,0-118.047,35.374-130.372,88.024l-5.455,23.301h265.592l4.486-2.669
	c2.347-1.397,23.076-14.41,27.825-40.622C438.325,271.278,431.34,249.93,413.883,228.145z"/>
<path style="fill:#6C0014;" d="M413.883,228.145l-13.248-16.531l-14.978,14.98c-16.049,16.049-25.462,13.52-50.627,6.753
	c-14.308-3.847-31.711-8.519-53.537-9.563v111.107h120.84l4.486-2.669c2.347-1.397,23.076-14.41,27.825-40.622
	C438.325,271.278,431.34,249.93,413.883,228.145z"/>
<polygon style="fill:#FFE98F;" points="126.782,296.939 157.505,512 405.482,512 430.783,334.891 458.602,334.891 458.602,366.518 
	496.554,366.518 496.554,296.939 "/>
<polygon style="fill:#FFC170;" points="281.493,296.939 281.493,512 405.482,512 430.783,334.891 458.602,334.891 458.602,366.518 
	496.554,366.518 496.554,296.939 "/>
<rect x="230.887" y="385.49" style="fill:#FFFFFF;" width="101.205" height="37.952"/>
</svg>