<?xml version="1.0" encoding="iso-8859-1"?>
<!-- Uploaded to: SVG Repo, www.svgrepo.com, Generator: SVG Repo Mixer Tools -->
<svg height="800px" width="800px" version="1.1" id="Layer_1" xmlns="http://www.w3.org/2000/svg" xmlns:xlink="http://www.w3.org/1999/xlink" 
	 viewBox="0 0 512.001 512.001" xml:space="preserve">
<path style="fill:#F1F2F2;" d="M52.944,156.011c0-22.212,30.387-43.038,67.87-43.038h2.418c99.918,0,158.118-25.148,188.934-45.607
	c9.133-6.064,16.912-8.472,21.608-12.935c5.326-5.062,13.653-6.721,21.271-2.821c50.234,25.718,76.047,62.753,81.178,104.402H52.944
	z"/>
<path style="fill:#D1D3D4;" d="M357.356,48.988c-7.618-3.9-19.307-2.863-24.633,2.2c-4.695,4.462-11.427,10.114-20.558,16.177
	c33.08,23.713,54.314,56.086,58.326,88.648h75.534C440.895,114.363,407.59,74.704,357.356,48.988z"/>
<path style="fill:#EDA21D;" d="M436.954,153.368H36.52c-4.141,0-7.498,3.357-7.498,7.498v44.715h415.431v-44.715
	C444.453,156.726,441.096,153.368,436.954,153.368z"/>
<path style="fill:#EA9000;" d="M467.777,153.368H410.91c4.545,0,8.23,3.685,8.23,8.231v43.982h56.868v-43.982
	C476.008,157.053,472.323,153.368,467.777,153.368z"/>
<path style="fill:#F2BA43;" d="M371.959,465.415H124.096c-65.546,0-118.682-53.136-118.682-118.682V220.562
	c0-9.106,7.382-16.487,16.487-16.487h452.254c9.106,0,16.487,7.382,16.487,16.487v126.171
	C490.641,412.279,437.505,465.415,371.959,465.415z"/>
<path style="fill:#EA9000;" d="M481.518,204.075h-62.511c9.995,0,18.098,8.103,18.098,18.098v112.964
	c0,71.95-58.328,130.278-130.278,130.278h62.511c71.95,0,130.278-58.328,130.278-130.278V222.173
	C499.616,212.178,491.513,204.075,481.518,204.075z"/>
<path style="fill:#ED4850;" d="M391.09,364.532H113.94c-3.775,0-6.836-3.061-6.836-6.836v-81.698c0-3.775,3.061-6.836,6.836-6.836
	H391.09c3.775,0,6.836,3.061,6.836,6.836v81.698C397.926,361.473,394.865,364.532,391.09,364.532z"/>
<path style="fill:#E0273D;" d="M362.072,344.321H142.958c-2.539,0-4.597-2.058-4.597-4.597v-45.752c0-2.539,2.058-4.597,4.597-4.597
	h219.113c2.539,0,4.597,2.058,4.597,4.597v45.752C366.669,342.263,364.61,344.321,362.072,344.321z"/>
<path d="M488.391,195.397v-33.798c0-9.445-7.684-17.129-17.129-17.129h-14.195c-8.168-40.51-40.582-76.991-92.171-103.403
	c-11.096-5.68-26.716-4.033-34.818,3.671c-18.768,17.841-76.154,59.338-203.359,59.338H124.3c-38.302,0-69.198,17.146-75.55,40.394
	h-8.014c-9.445,0-17.129,7.684-17.129,17.129v33.798C10.317,197.07,0,208.436,0,222.173v112.964
	c0,76.743,62.434,139.177,139.177,139.177h233.647c76.743,0,139.177-62.434,139.177-139.177V222.173
	C512,208.436,501.682,197.07,488.391,195.397z M124.3,121.872h2.418c57.304,0,107.378-8.133,148.83-24.173
	c34.352-13.292,55.281-29.122,66.789-40.063c2.145-2.037,9.625-3.196,14.448-0.728c45.057,23.066,73.79,53.86,82.056,87.563H68.064
	C75.321,132.554,96.421,121.872,124.3,121.872z M494.204,335.137c0,66.929-54.451,121.381-121.381,121.381H139.177
	c-66.931-0.001-121.381-54.452-121.381-121.381V222.173c0-5.073,4.127-9.199,9.201-9.199h48.715c4.915,0,8.898-3.984,8.898-8.898
	c0-4.914-3.983-8.898-8.898-8.898H41.404v-32.911h15.025h393.08h21.085v32.911H110.451c-4.915,0-8.898,3.984-8.898,8.898
	c0,4.914,3.983,8.898,8.898,8.898h374.552c5.073,0,9.201,4.127,9.201,9.199V335.137z"/>
<path d="M401.411,260.264H110.589c-4.915,0-8.898,3.983-8.898,8.898v95.372c0,4.915,3.983,8.898,8.898,8.898h290.823
	c4.915,0,8.898-3.983,8.898-8.898v-95.372C410.309,264.247,406.325,260.264,401.411,260.264z M392.513,355.636H119.487v-77.576
	h273.027V355.636z"/>
</svg>